<?xml version="1.0" ?><!DOCTYPE svg  PUBLIC '-//W3C//DTD SVG 1.1//EN'  'http://www.w3.org/Graphics/SVG/1.1/DTD/svg11.dtd'><svg enable-background="new 0 0 99.176 99.176" height="99.176px" id="Layer_1" version="1.1" viewBox="0 0 99.176 99.176" width="99.176px" xml:space="preserve" xmlns="http://www.w3.org/2000/svg" xmlns:xlink="http://www.w3.org/1999/xlink"><g><path d="M71.141,61.971   c-2.299,0-4.178,1.877-4.178,4.178v7.223c0,0.756-0.623,1.385-1.385,1.385c-0.779,0-1.404-0.629-1.404-1.385V30.377   c0-2.312-1.865-4.178-4.178-4.178c-2.299,0-4.174,1.865-4.174,4.178v40.201c0,0.766-0.629,1.385-1.389,1.385   c-0.775,0-1.404-0.619-1.404-1.385V25.707c0-2.299-1.865-4.174-4.18-4.174c-2.311,0-4.176,1.875-4.176,4.174v44.871   c0,0.766-0.625,1.385-1.402,1.385c-0.76,0-1.387-0.619-1.387-1.385V35.016c0-2.312-1.877-4.178-4.178-4.178   c-2.311,0-4.176,1.865-4.176,4.178v49.496L33.43,70.238c-1.674-2.568-4.939-3.439-7.334-1.951   c-2.383,1.502-2.967,4.799-1.319,7.371c0,0,3.554,20.311,7.435,26.203c3.877,5.906,10.166,10.52,21.924,10.52   c19.459,0,21.201-15.023,21.201-19.514V66.148C75.336,63.848,73.453,61.971,71.141,61.971z" fill="#FFFFFF" stroke="#58595B" stroke-miterlimit="10" stroke-width="3.4835"/><path d="M71.141,61.971   c-2.299,0-4.178,1.877-4.178,4.178v7.223c0,0.756-0.623,1.385-1.385,1.385c-0.779,0-1.404-0.629-1.404-1.385V30.377   c0-2.312-1.865-4.178-4.178-4.178c-2.299,0-4.174,1.865-4.174,4.178v40.201c0,0.766-0.629,1.385-1.389,1.385   c-0.775,0-1.404-0.619-1.404-1.385V25.707c0-2.299-1.865-4.174-4.18-4.174c-2.311,0-4.176,1.875-4.176,4.174v44.871   c0,0.766-0.625,1.385-1.402,1.385c-0.76,0-1.387-0.619-1.387-1.385V35.016c0-2.312-1.877-4.178-4.178-4.178   c-2.311,0-4.176,1.865-4.176,4.178v49.496L33.43,70.238c-1.674-2.568-4.939-3.439-7.334-1.951   c-2.383,1.502-2.967,4.799-1.319,7.371c0,0,3.554,20.311,7.435,26.203c3.877,5.906,10.166,10.52,21.924,10.52   c19.459,0,21.201-15.023,21.201-19.514V66.148C75.336,63.848,73.453,61.971,71.141,61.971z" fill="#FFFFFF" stroke="#58595B" stroke-linecap="round" stroke-linejoin="round" stroke-miterlimit="10"/><path clip-rule="evenodd" d="M33.445,22.379c0.861,0.609,2.156,0.01,1.324-1.205   c1.615-4.561,1.887-9.333,3.064-13.962c-0.441-0.801-1.061-0.463-1.615-0.539c-0.844,3.689-1.268,7.447-2.188,11.125   c-1.449-6.298-1.787-12.832-0.875-19.047c0.133-0.902,0.434-2.133,0.357-2.706c0.273-0.192,0.189-0.311,0.326-0.725   c-0.256-0.832-1.115-1.138-1.766-0.918c-0.305,1.465-0.422,2.955-0.562,4.443c-0.139,1.477-0.383,2.976-0.287,4.486   c-0.283,0.451,0.094,1.006-0.16,1.463c0.211,0.156-0.049,0.594,0.268,0.539c-0.512,3.754,0.473,8.296,1.018,12.341   c-1.359-2.574-2.92-6.3-4.649-9.095c-0.398-0.488-1.569-0.393-1.702,0.016c-0.159,0.494,0.767,2.268,1.142,3.084   C28.836,15.381,30.742,19.82,33.445,22.379L33.445,22.379z" fill="#939598" fill-rule="evenodd"/><path clip-rule="evenodd" d="M46.605,14.844c0.861,0.609,2.156,0.01,1.324-1.205   c1.613-4.562,1.887-9.335,3.062-13.962c-0.439-0.801-1.059-0.463-1.615-0.539c-0.842,3.689-1.268,7.447-2.186,11.125   C45.742,3.963,45.402-2.57,46.314-8.787c0.133-0.902,0.434-2.133,0.357-2.705c0.273-0.193,0.191-0.312,0.328-0.727   c-0.256-0.832-1.117-1.137-1.766-0.918c-0.307,1.465-0.422,2.957-0.564,4.443c-0.139,1.477-0.381,2.977-0.287,4.488   c-0.281,0.451,0.096,1.006-0.16,1.463c0.211,0.156-0.047,0.594,0.27,0.537c-0.514,3.756,0.471,8.299,1.016,12.344   c-1.357-2.574-2.918-6.301-4.648-9.096c-0.396-0.488-1.568-0.393-1.701,0.014c-0.16,0.494,0.768,2.27,1.141,3.084   C41.996,7.846,43.9,12.285,46.605,14.844L46.605,14.844z" fill="#939598" fill-rule="evenodd"/><path clip-rule="evenodd" d="M60.459,22.379c0.861,0.609,2.156,0.01,1.324-1.205   c1.615-4.561,1.887-9.333,3.064-13.962c-0.441-0.801-1.061-0.463-1.615-0.539c-0.844,3.689-1.268,7.447-2.188,11.125   C59.596,11.499,59.258,4.965,60.17-1.25c0.133-0.902,0.434-2.133,0.357-2.706c0.273-0.192,0.189-0.311,0.326-0.725   c-0.256-0.832-1.115-1.138-1.766-0.918c-0.305,1.465-0.422,2.955-0.562,4.443c-0.139,1.477-0.383,2.976-0.287,4.486   c-0.283,0.451,0.094,1.006-0.16,1.463c0.211,0.156-0.049,0.594,0.268,0.539c-0.512,3.754,0.473,8.296,1.018,12.341   c-1.359-2.574-2.92-6.3-4.648-9.095c-0.398-0.488-1.57-0.393-1.703,0.016c-0.158,0.494,0.768,2.268,1.143,3.084   C55.85,15.381,57.756,19.82,60.459,22.379L60.459,22.379z" fill="#939598" fill-rule="evenodd"/></g></svg>