<?xml version="1.0" ?><!DOCTYPE svg  PUBLIC '-//W3C//DTD SVG 1.1//EN'  'http://www.w3.org/Graphics/SVG/1.1/DTD/svg11.dtd'><svg enable-background="new 0 0 64 64" height="64px" id="Icons" version="1.1" viewBox="0 0 64 64" width="64px" xml:space="preserve" xmlns="http://www.w3.org/2000/svg" xmlns:xlink="http://www.w3.org/1999/xlink"><g id="important_note"><g><polygon fill="#37474F" points="15,27 28.586,27 29.586,26 15,26   "/><polygon fill="#37474F" points="44.586,11 15,11 15,12 43.586,12   "/><polygon fill="#37474F" points="39.586,16 15,16 15,17 38.586,17   "/><polygon fill="#37474F" points="33.713,21.873 34.586,21 15,21 15,22 33.586,22   "/><path d="M57.172,18.173l-6.344-6.344c-0.777-0.778-1.803-1.167-2.828-1.167s-2.051,0.389-2.828,1.167L44,13.001    L32.228,24.773L20,37.001l-2,2c0,0,1.958,5.042-3,10l0.5,0.5l-2,1.999C11.567,53.434,11.791,55,14,55h3.001    c0.552,0,1.315-0.316,1.706-0.707l0.793-0.792l0.5,0.5c2.77-2.77,5.566-3.381,7.495-3.381c1.523,0,2.505,0.381,2.505,0.381l2-2    l12.505-12.505L52,29.001V58H10V6h42v5.587l1,1V5H9v54h44V28.001l3-3l1.172-1.172C58.728,22.273,58.728,19.729,57.172,18.173z     M18,53.586C17.799,53.787,17.285,54,17.001,54H14c-0.632,0-0.807-0.158-0.812-0.158c-0.029-0.092,0.06-0.675,1.019-1.634l2-2    l2.586,2.586L18,53.586z M29.713,49.874c-0.5-0.122-1.264-0.254-2.218-0.254c-1.9,0-4.676,0.539-7.472,2.989l-3.631-3.631    c3.608-4.109,3.114-8.147,2.735-9.69L20,38.415l10.586,10.586L29.713,49.874z M31.293,48.294L20.707,37.708L44,14.415    l10.586,10.586L31.293,48.294z M56.465,23.122l-1.172,1.172L44.707,13.708l1.172-1.172c0.563-0.563,1.316-0.874,2.121-0.874    s1.558,0.311,2.121,0.874l6.344,6.344C57.635,20.05,57.635,21.952,56.465,23.122z" fill="#37474F"/></g><rect fill="#37474F" height="30.552" transform="matrix(0.7071 0.7071 -0.7071 0.7071 36.6311 -18.9567)" width="1" x="40.698" y="19.463"/></g></svg>