<?xml version="1.0" ?><!DOCTYPE svg  PUBLIC '-//W3C//DTD SVG 1.1//EN'  'http://www.w3.org/Graphics/SVG/1.1/DTD/svg11.dtd'><svg enable-background="new 0 0 500 500" height="500px" id="Layer_1" version="1.1" viewBox="0 0 500 500" width="500px" xml:space="preserve" xmlns="http://www.w3.org/2000/svg" xmlns:xlink="http://www.w3.org/1999/xlink"><path clip-rule="evenodd" d="M31.949,431.711c0,20.078,16.264,36.34,36.34,36.34h118.111  c20.079,0,36.343-16.262,36.343-36.34v-145.37h54.514v145.37c0,20.078,16.263,36.34,36.341,36.34h118.112  c20.078,0,36.34-16.262,36.34-36.34V195.487c0-20.078-16.262-36.342-36.34-36.342h-18.173V77.375h4.543  c12.536,0,22.716-10.177,22.716-22.713c0-12.536-10.18-22.713-22.716-22.713H299.97c-12.536,0-22.712,10.177-22.712,22.713  c0,12.537,10.176,22.713,22.712,22.713h4.543v81.769H195.487V77.375h4.543c12.537,0,22.713-10.177,22.713-22.713  c0-12.536-10.177-22.713-22.713-22.713H81.918c-12.536,0-22.713,10.177-22.713,22.713c0,12.537,10.177,22.713,22.713,22.713h4.543  v81.769H68.29c-20.077,0-36.34,16.264-36.34,36.342V431.711z M268.172,240.914H231.83c-9.991,0-18.172-8.175-18.172-18.17  c0-9.995,8.181-18.17,18.172-18.17h36.342c9.988,0,18.169,8.175,18.169,18.17C286.341,232.739,278.16,240.914,268.172,240.914z" fill="#010101" fill-rule="evenodd"/></svg>