<?xml version="1.0" ?><!DOCTYPE svg  PUBLIC '-//W3C//DTD SVG 1.1//EN'  'http://www.w3.org/Graphics/SVG/1.1/DTD/svg11.dtd'><svg enable-background="new 0 0 128 128" height="128px" id="Layer_1" version="1.1" viewBox="0 0 128 128" width="128px" xml:space="preserve" xmlns="http://www.w3.org/2000/svg" xmlns:xlink="http://www.w3.org/1999/xlink"><path d="M106.827,7.609c0,0-3.559,14.605-7.99,21.508c-0.253,0.395-0.51,0.756-0.769,1.096c-5.405-6.152-18.25-11.138-34.081-11.138  c-15.821,0-28.693,4.949-34.067,11.124c-0.255-0.336-0.508-0.692-0.758-1.081c-4.431-6.903-7.99-21.508-7.99-21.508  s-3.286,20.274-2.581,35.474c0.667,14.377,3.413,21.438,5.578,23.564c0.977,0.96,1.917,1.72,2.786,2.337L26.37,93.001  c0,0.01,0.002,0.02,0.002,0.03l-0.002,0.077c-0.057,2.355,1.623,5.088,3.735,6.133l15.537,7.708  c2.112,1.045,5.768,1.976,8.124,1.976h20.468c2.356,0,6.012-0.929,8.124-1.973l15.537-7.732c2.112-1.045,3.793-3.841,3.735-6.196  l-0.586-24.039c0.87-0.617,1.81-1.377,2.787-2.337c2.164-2.127,4.911-9.188,5.578-23.564  C110.113,27.883,106.827,7.609,106.827,7.609z M95.153,93.882l-15.469,7.698c-1.341,0.663-4.098,1.345-5.45,1.345H53.766  c-1.351,0-4.107-0.683-5.462-1.354l-15.531-7.706c-0.101-0.084-0.345-0.473-0.402-0.704l0.513-21.047  c0.007,0.004,0.012,0.007,0.019,0.011c0.35,0.193,0.756,0.404,1.203,0.615c0.298,0.14,0.614,0.28,0.943,0.413  s0.672,0.26,1.023,0.376c0.352,0.115,0.712,0.218,1.076,0.303c2.184,0.51,14.531,2.496,20.81,3.626L64,83.491l-2.714-10.079  l-0.823-6.821c0,0,0.042-2.036-0.698-5.093c-0.019-0.078-0.038-0.156-0.058-0.235c-0.78-3.105-2.36-7.203-5.57-11.289  c-2.589-3.295-7.09-7.058-11.405-10.298c-0.288-0.216-0.575-0.43-0.86-0.641c-1.142-0.844-2.26-1.647-3.316-2.389  c-0.264-0.186-0.524-0.367-0.779-0.545c-0.511-0.355-1.003-0.694-1.473-1.015c-0.469-0.32-0.916-0.622-1.334-0.903  c-0.13-0.087-0.241-0.16-0.365-0.243c4.019-4.467,15.079-8.866,29.383-8.866c14.194,0,25.285,4.406,29.386,8.881  c-0.117,0.078-0.221,0.147-0.343,0.229c-0.418,0.281-0.864,0.582-1.334,0.903c-0.469,0.32-0.962,0.659-1.473,1.015  c-0.255,0.178-0.515,0.359-0.779,0.545c-1.056,0.742-2.174,1.545-3.316,2.389c-0.285,0.211-0.572,0.425-0.86,0.641  c-4.315,3.24-8.816,7.003-11.405,10.298c-3.21,4.085-4.791,8.183-5.57,11.289c-0.02,0.079-0.039,0.158-0.058,0.235  c-0.74,3.057-0.698,5.093-0.698,5.093l-0.823,6.821L64,83.491l6.043-6.033c6.278-1.131,18.625-3.116,20.81-3.626  c0.364-0.085,0.724-0.188,1.076-0.303c0.351-0.115,0.694-0.242,1.024-0.376c0.329-0.133,0.645-0.273,0.943-0.413  c0.447-0.21,0.853-0.422,1.203-0.615c0.007-0.004,0.013-0.008,0.021-0.012l0.511,20.971C95.576,93.319,95.334,93.724,95.153,93.882z   M38.747,66.913l0.25-10.252l17.702,9.229l0.242,4.976L38.747,66.913z M89.253,66.913L71.06,70.866l0.242-4.976l17.702-9.229  L89.253,66.913z"/></svg>