<?xml version="1.0" ?><svg enable-background="new 0 0 128 128" id="Слой_1" version="1.1" viewBox="0 0 128 128" xml:space="preserve" xmlns="http://www.w3.org/2000/svg" xmlns:xlink="http://www.w3.org/1999/xlink"><g><g><path d="M88.3808594,46.2299805c-0.5527344,0-1.1025391-0.2275391-1.4980469-0.6738281l-0.1420898-0.1591797    c-0.7358398-0.8237305-0.6650391-2.0878906,0.1582031-2.8242188c0.8242188-0.7348633,2.0878906-0.6645508,2.8242188,0.1582031    l0.1538086,0.1728516c0.7324219,0.8266602,0.6557617,2.0908203-0.1708984,2.8232422    C89.3256836,46.0639648,88.8520508,46.2299805,88.3808594,46.2299805z" fill="#3399CC"/></g><g><path d="M91.3808594,50.2299805c-0.5527344,0-1.1025391-0.2275391-1.4980469-0.6738281l-0.1420898-0.1591797    c-0.7358398-0.8237305-0.6650391-2.0878906,0.1582031-2.8242188c0.8242188-0.7348633,2.0878906-0.6650391,2.8242188,0.1582031    l0.1538086,0.1728516c0.7324219,0.8266602,0.6557617,2.0908203-0.1708984,2.8232422    C92.3256836,50.0639648,91.8520508,50.2299805,91.3808594,50.2299805z" fill="#3399CC"/></g><g><path d="M93.347168,55.2509766c-0.800293,0-1.5556641-0.4833984-1.8637695-1.2739258L91.40625,53.7817383    c-0.4077148-1.0268555,0.0942383-2.1894531,1.1206055-2.597168c1.027832-0.4067383,2.1899414,0.0942383,2.597168,1.1206055    l0.0859375,0.21875c0.4013672,1.0288086-0.1074219,2.1884766-1.1367188,2.5898438    C93.8349609,55.2070312,93.5888672,55.2509766,93.347168,55.2509766z" fill="#3399CC"/></g><g><path d="M94.347168,60.2509766c-0.800293,0-1.5556641-0.4833984-1.8637695-1.2739258L92.40625,58.7817383    c-0.4077148-1.0268555,0.0942383-2.1894531,1.1206055-2.597168c1.0273438-0.4067383,2.1894531,0.0942383,2.597168,1.1206055    l0.0859375,0.21875c0.4013672,1.0288086-0.1074219,2.1884766-1.1367188,2.5898438    C94.8349609,60.2070312,94.5888672,60.2509766,94.347168,60.2509766z" fill="#3399CC"/></g><g><path d="M34.9672852,55.3823242c-0.2211914,0-0.4462891-0.0371094-0.6669922-0.1147461    c-1.0415039-0.3686523-1.5869141-1.5112305-1.21875-2.5527344C37.7290039,39.5771484,50.2192383,30.75,64.1616211,30.75    c7.371582,0,14.3427734,2.3798828,20.1586914,6.8818359c0.5419922,0.4194336,1.0703125,0.8554688,1.5844727,1.3071289    c0.8295898,0.7290039,0.9111328,1.9926758,0.1821289,2.8227539c-0.7290039,0.8291016-1.9921875,0.9111328-2.8227539,0.1821289    c-0.4516602-0.3969727-0.9165039-0.7802734-1.3925781-1.1494141C76.7631836,36.840332,70.6391602,34.75,64.1616211,34.75    c-12.2509766,0-23.2255859,7.7553711-27.3085938,19.2988281C36.5625,54.8696289,35.7910156,55.3823242,34.9672852,55.3823242z" fill="#3399CC"/></g><g><path d="    M43.9531898,46.3333321" fill="none" stroke="#3399CC" stroke-linecap="round" stroke-linejoin="round" stroke-miterlimit="10" stroke-width="4"/></g><g><path d="    M34.9671974,53.3820457" fill="none" stroke="#3399CC" stroke-linecap="round" stroke-linejoin="round" stroke-miterlimit="10" stroke-width="4"/></g><g><path d="M40.0820312,84.9365234c-0.5493164,0-1.0966797-0.2250977-1.4916992-0.6669922l-0.159668-0.1801758    c-0.7285156-0.8305664-0.6459961-2.09375,0.1845703-2.8222656c0.8300781-0.7290039,2.09375-0.6455078,2.8222656,0.1845703    l0.1352539,0.1518555c0.7358398,0.8237305,0.6650391,2.0878906-0.1582031,2.8242188    C41.0327148,84.7685547,40.5566406,84.9365234,40.0820312,84.9365234z" fill="#3399CC"/></g><g><path d="M37.0820312,80.9365234c-0.5493164,0-1.0966797-0.2250977-1.4916992-0.6669922l-0.159668-0.1801758    c-0.7285156-0.8305664-0.6459961-2.09375,0.1845703-2.8222656c0.8295898-0.7299805,2.0932617-0.6459961,2.8222656,0.1845703    l0.1352539,0.1518555c0.7358398,0.8237305,0.6650391,2.0878906-0.1582031,2.8242188    C38.0327148,80.7685547,37.5566406,80.9365234,37.0820312,80.9365234z" fill="#3399CC"/></g><g><path d="M35.0488281,75.9575195c-0.7954102,0-1.5478516-0.4780273-1.859375-1.262207l-0.0874023-0.2231445    c-0.3989258-1.0297852,0.112793-2.1879883,1.1430664-2.5874023c1.0297852-0.3964844,2.1884766,0.112793,2.5874023,1.1430664    l0.074707,0.190918c0.4077148,1.0268555-0.0942383,2.1894531-1.1206055,2.597168    C35.5444336,75.9121094,35.2944336,75.9575195,35.0488281,75.9575195z" fill="#3399CC"/></g><g><path d="M34.0488281,70.9575195c-0.7954102,0-1.5478516-0.4780273-1.859375-1.262207l-0.0874023-0.2231445    c-0.3989258-1.0297852,0.112793-2.1879883,1.1430664-2.5874023c1.0297852-0.3969727,2.1879883,0.112793,2.5874023,1.1430664    l0.074707,0.190918c0.4077148,1.0268555-0.0942383,2.1894531-1.1206055,2.597168    C34.5444336,70.9121094,34.2944336,70.9575195,34.0488281,70.9575195z" fill="#3399CC"/></g><g><path d="M32.5009766,58.5527344c-0.3544922,0-0.7080078-0.0942383-1.0224609-0.28125    c-0.6015625-0.3579102-0.972168-1.0039062-0.9775391-1.7041016l-0.0854492-11.5715332    C30.4072266,43.8913574,31.2963867,43,32.4008789,43c0.0048828,0,0.0097656,0,0.0151367,0    c1.0976562,0,1.9912109,0.8669434,1.9995117,1.9665527l0.0610352,8.2752686l7.3105469-3.9031372    c0.9736328-0.5195312,2.1855469-0.1542053,2.7055664,0.8213806c0.5200195,0.9746094,0.1508789,2.1848602-0.8237305,2.7043915    l-10.2270508,5.4535141C33.1474609,58.4751968,32.8242188,58.5527344,32.5009766,58.5527344z" fill="#3399CC"/></g><g><path d="M63.8383789,96.5527344c-7.371582,0-14.3427734-2.3798828-20.1586914-6.8818359    c-0.5419922-0.4194336-1.0703125-0.8554688-1.5844727-1.3071289c-0.8295898-0.7290039-0.9111328-1.9926758-0.1821289-2.8227539    c0.7290039-0.8286133,1.9921875-0.9106445,2.8227539-0.1821289c0.4516602,0.3969727,0.9165039,0.7802734,1.3925781,1.1494141    c5.1083984,3.9541016,11.2324219,6.0444336,17.7099609,6.0444336c12.2509766,0,23.2255859-7.7553711,27.3085938-19.2988281    c0.3686523-1.0405273,1.5117188-1.5859375,2.5527344-1.21875c1.0415039,0.3686523,1.5869141,1.5112305,1.21875,2.5527344    C90.2709961,87.7255859,77.7807617,96.5527344,63.8383789,96.5527344z" fill="#3399CC"/></g><g><path d="M95.5839844,84c-1.0976562,0-1.9912109-0.7155762-1.9995117-1.8151855l-0.0610352-8.199585    l-7.3105469,3.940979c-0.9741211,0.5195312-2.1865234,0.1716614-2.7055664-0.8024597    c-0.5200195-0.9746094-0.1508789-2.1753998,0.8237305-2.694931l10.2270508-5.4487839    c0.6171875-0.3300781,1.3618164-0.3093491,1.9633789,0.0485611s0.972168,1.0052338,0.9775391,1.7054291l0.0854492,11.4208298    C97.5927734,83.259346,96.7036133,84,95.5991211,84C95.5942383,84,95.5893555,84,95.5839844,84z" fill="#3399CC"/></g></g></svg>